# xmcd
# 
# Track frame offsets:
#     150
#     20137
#     36177
#     51555
#     65567
#     89777
#     107712
#     119422
#     139655
#     152145
# 
# Disc length: 2300
# 
# Revision: 1
# Processed by: cddbd v1.5.2PL0 Copyright (c) Steve Scherf et al.
# Submitted via: fre:ac v1.0.27
# 
DISCID=9608fa0a
DTITLE=Chris Hillman - Clear Sailin'
DYEAR=0
DGENRE=
TTITLE0=Nothing Get's Through
TTITLE1=Fallen Favorite
TTITLE2=Quits
TTITLE3=Hot Dusty Roads
TTITLE4=Heartbreaker
TTITLE5=Played The Fool
TTITLE6=Lucky In love
TTITLE7=Rollin' And Tumblin'
TTITLE8=Ain't That Peculiar
TTITLE9=Clear Sakin'
EXTD=
EXTT0=
EXTT1=
EXTT2=
EXTT3=
EXTT4=
EXTT5=
EXTT6=
EXTT7=
EXTT8=
EXTT9=
PLAYORDER=
